<?xml version="1.0" encoding="utf-8"?>
<!-- Generator: Adobe Illustrator 19.1.1, SVG Export Plug-In . SVG Version: 6.00 Build 0)  -->
<svg version="1.1" xmlns="http://www.w3.org/2000/svg" xmlns:xlink="http://www.w3.org/1999/xlink" x="0px" y="0px"
	 width="100" height="100" viewBox="0 0 100 100" style="enable-background:new 0 0 100 100;" xml:space="preserve">
<style type="text/css">
	.st0{display:none;}
	.st1{display:inline;}
	.st2{fill:#FFFFFF;}
	.st3{fill:none;stroke:#FFFFFF;stroke-width:3;stroke-miterlimit:10;}
</style>
<g id="Layer_5" class="st0">
	<rect x="-320.5" y="-16.5" class="st1" width="451" height="147.5"/>
</g>
<g id="Layer_2">
</g>
<g id="Layer_3">
</g>
<g id="Layer_4">
	<g>
		<g>
			<path class="st2" d="M22.3,37.1c7.4,0,13.4,6,13.4,13.4s-6,13.4-13.4,13.4s-13.4-6-13.4-13.4S14.9,37.1,22.3,37.1 M22.3,34.1
				c-9.1,0-16.4,7.4-16.4,16.4c0,9.1,7.4,16.4,16.4,16.4s16.4-7.4,16.4-16.4C38.7,41.4,31.3,34.1,22.3,34.1L22.3,34.1z"/>
		</g>
		<g>
			<path class="st2" d="M77.7,3.3c7.4,0,13.4,6,13.4,13.4s-6,13.4-13.4,13.4s-13.4-6-13.4-13.4S70.3,3.3,77.7,3.3 M77.7,0.3
				c-9.1,0-16.4,7.4-16.4,16.4s7.4,16.4,16.4,16.4s16.4-7.4,16.4-16.4S86.8,0.3,77.7,0.3L77.7,0.3z"/>
		</g>
		<g>
			<path class="st2" d="M77.7,69.9c7.4,0,13.4,6,13.4,13.4s-6,13.4-13.4,13.4s-13.4-6-13.4-13.4S70.3,69.9,77.7,69.9 M77.7,66.9
				c-9.1,0-16.4,7.4-16.4,16.4s7.4,16.4,16.4,16.4s16.4-7.4,16.4-16.4S86.8,66.9,77.7,66.9L77.7,66.9z"/>
		</g>
		<line class="st3" x1="32.5" y1="61.2" x2="63.6" y2="80"/>
		<line class="st3" x1="37.2" y1="53.4" x2="68.3" y2="72.3"/>
		<line class="st3" x1="31.7" y1="39.3" x2="63.2" y2="20.3"/>
		<line class="st3" x1="36.6" y1="46.6" x2="68.1" y2="27.6"/>
	</g>
</g>
</svg>
